# xmcd
#
# Track frame offsets: 
#        150
#        15527
#        32402
#        47888
#        61572
#        77651
#        92202
#        105738
#        118658
#        136188
#        151870
#        163854
#
# Disc length: 2394 seconds
#
# Revision: 0
# Processed by: cddbd v1.5.2PL0 Copyright (c) Steve Scherf et al.
# Submitted via: ExactAudioCopy v0.99pb4
#
DISCID=8a09580c
DTITLE=Various Artist - Bose Private Performances: Only One You
DYEAR=1900
DGENRE=Country
TTITLE0=T.G. Sheppard  - Only One You
TTITLE1=Dottie West - You're Not Easy to Forget
TTITLE2=Larry Gatlin - Sure Feels Like Love
TTITLE3=Johnny Lee - I Just Want to Love You Forever
TTITLE4=John Anderson - I Just Came Home to Count the Memories
TTITLE5=Con Hunley - Oh Girl
TTITLE6=Glen Campbell - Gentle On My Mind
TTITLE7=Tanya Tucker - Can I See You Tonight
TTITLE8=Ronnie McDowell - I Just Cut Myself
TTITLE9=Charly McClain - Dancing Your Memory Away
TTITLE10=Conway Twitty - (Lying Here With) Linda On My Mind
TTITLE11=Karen Brooks - If That's What You're Thinking
EXTD=
EXTT0=
EXTT1=
EXTT2=
EXTT3=
EXTT4=
EXTT5=
EXTT6=
EXTT7=
EXTT8=
EXTT9=
EXTT10=
EXTT11=
PLAYORDER=
